<?xml version="1.0" encoding="UTF-8"?>
<svg id="Layer_1" data-name="Layer 1" xmlns="http://www.w3.org/2000/svg" xmlns:xlink="http://www.w3.org/1999/xlink" viewBox="0 0 87.38 114.09">
  <defs>
    <style>
      .cls-1 {
        fill: url(#linear-gradient);
      }

      .cls-2 {
        fill: #21c379;
      }
    </style>
    <linearGradient id="linear-gradient" x1="31.21" y1="63.36" x2="31.21" y2="38.43" gradientUnits="userSpaceOnUse">
      <stop offset=".04" stop-color="#21c379"/>
      <stop offset=".18" stop-color="#21c379" stop-opacity=".88"/>
      <stop offset=".49" stop-color="#21c379" stop-opacity=".58"/>
      <stop offset=".92" stop-color="#21c379" stop-opacity=".09"/>
      <stop offset="1" stop-color="#21c379" stop-opacity="0"/>
    </linearGradient>
  </defs>
  <g id="Layer_1-2" data-name="Layer 1">
    <g>
      <path class="cls-1" d="M37.45,47.34l-12.48-3.12v19.94c0,.07,0,.14,0,.2h12.49c0-.07-.01-.13-.01-.2v-16.82Z"/>
      <path class="cls-2" d="M24.96,24.96L0,18.72v51.68c0,24.09,19.6,43.69,43.69,43.69s43.69-19.6,43.69-43.69V15.6L24.96,0v24.96ZM56.17,82.89c-10.26,0-18.6-8.29-18.71-18.52h-12.49c.11,17.11,14.06,31,31.2,31,2.52,0,4.98-.3,7.33-.87-5.39,4.44-12.29,7.11-19.81,7.11-17.21,0-31.21-14-31.21-31.21v-35.69l2.55.64,8.84,2.21s.01-.02.02-.04l15.6,3.9s0,.03,0,.04l10.44,2.61v7.61c0,10.32,8.4,18.72,18.72,18.72,1.89,0,3.72-.28,5.44-.8-2.33,7.68-9.48,13.29-17.92,13.29ZM37.45,15.99l37.45,9.36v26.33c0,3.44-2.8,6.24-6.24,6.24-2.75,0-5.08-1.79-5.91-4.26-.21-.62-.33-1.29-.33-1.99v-17.36l-24.96-6.24v-12.1Z"/>
    </g>
  </g>
</svg>