<?xml version="1.0" encoding="UTF-8"?>
<svg id="Layer_1" data-name="Layer 1" xmlns="http://www.w3.org/2000/svg" xmlns:xlink="http://www.w3.org/1999/xlink" viewBox="0 0 532.03 114.09">
  <defs>
    <style>
      .cls-1 {
        fill: none;
      }

      .cls-2 {
        fill: url(#linear-gradient);
      }

      .cls-3 {
        fill: #21c379;
      }
    </style>
    <linearGradient id="linear-gradient" x1="31.21" y1="63.36" x2="31.21" y2="38.43" gradientUnits="userSpaceOnUse">
      <stop offset=".04" stop-color="#21c379"/>
      <stop offset=".18" stop-color="#21c379" stop-opacity=".88"/>
      <stop offset=".49" stop-color="#21c379" stop-opacity=".58"/>
      <stop offset=".92" stop-color="#21c379" stop-opacity=".09"/>
      <stop offset="1" stop-color="#21c379" stop-opacity="0"/>
    </linearGradient>
  </defs>
  <g id="Layer_1-2" data-name="Layer 1">
    <g>
      <path class="cls-2" d="M37.45,47.34l-12.48-3.12v19.94c0,.07,0,.14,0,.2h12.49c0-.07-.01-.13-.01-.2v-16.82Z"/>
      <path class="cls-3" d="M24.96,24.96L0,18.72v51.68c0,24.09,19.6,43.69,43.69,43.69s43.69-19.6,43.69-43.69V15.6L24.96,0v24.96ZM56.17,82.89c-10.26,0-18.6-8.29-18.71-18.52h-12.49c.11,17.11,14.06,31,31.2,31,2.52,0,4.98-.3,7.33-.87-5.39,4.44-12.29,7.11-19.81,7.11-17.21,0-31.21-14-31.21-31.21v-35.69l2.55.64,8.84,2.21s.01-.02.02-.04l15.6,3.9s0,.03,0,.04l10.44,2.61v7.61c0,10.32,8.4,18.72,18.72,18.72,1.89,0,3.72-.28,5.44-.8-2.33,7.68-9.48,13.29-17.92,13.29ZM37.45,15.99l37.45,9.36v26.33c0,3.44-2.8,6.24-6.24,6.24-2.75,0-5.08-1.79-5.91-4.26-.21-.62-.33-1.29-.33-1.99v-17.36l-24.96-6.24v-12.1Z"/>
    </g>
  </g>
  <g id="Layer_1-3" data-name="Layer 1">
    <g>
      <path class="cls-1" d="M365.38,47.4c-2.25-1.28-4.81-1.93-7.68-1.93s-5.39.64-7.66,1.93c-2.26,1.29-4.04,3.11-5.32,5.48-1.29,2.37-1.93,5.17-1.93,8.42s.64,6.05,1.93,8.42c1.28,2.37,3.06,4.19,5.32,5.48,2.27,1.29,4.82,1.93,7.66,1.93s5.43-.64,7.68-1.93c2.25-1.28,4.02-3.11,5.32-5.48s1.95-5.17,1.95-8.42-.65-6.05-1.95-8.42-3.08-4.19-5.32-5.48Z"/>
      <path class="cls-3" d="M147.59,64.64c0,2.37-.5,4.45-1.5,6.26-1,1.81-2.38,3.22-4.13,4.23-1.76,1.01-3.74,1.52-5.93,1.52-3.45,0-6.13-1-8.04-2.99s-2.86-4.63-2.86-7.91v-29.76h-12.52v31.94c0,3.75.73,7.15,2.18,10.19,1.45,3.04,3.67,5.47,6.64,7.28,2.97,1.81,6.73,2.71,11.26,2.71,3.72,0,6.9-.67,9.56-2,2.65-1.33,4.93-3.12,6.82-5.35v5.83h11.1v-50.6h-12.57v28.65Z"/>
      <path class="cls-3" d="M210,37.26c-3.04-1.86-6.9-2.79-11.56-2.79-2.94,0-5.78.61-8.52,1.83-2.74,1.22-5.14,3.18-7.2,5.88v-6.19h-12.52v50.6h12.52v-28.09c0-2.47.52-4.65,1.57-6.54,1.05-1.89,2.49-3.36,4.33-4.41,1.84-1.05,3.95-1.57,6.31-1.57,3.65,0,6.49,1.03,8.52,3.09,2.03,2.06,3.04,4.83,3.04,8.31v29.21h12.52v-33.16c0-3.11-.74-6.12-2.23-9.03-1.49-2.91-3.75-5.29-6.79-7.15Z"/>
      <path class="cls-3" d="M260.15,75.75c-2.2.91-4.55,1.37-7.05,1.37-5,0-8.96-1.4-11.87-4.21s-4.36-6.69-4.36-11.66c0-3.31.66-6.14,1.98-8.49s3.19-4.15,5.6-5.4c2.42-1.25,5.3-1.88,8.65-1.88,2.23,0,4.35.35,6.36,1.04,2.01.69,3.81,1.75,5.4,3.17l5.88-9.48c-2.5-1.93-5.26-3.36-8.27-4.31-3.01-.95-6.27-1.42-9.79-1.42-4.09,0-7.86.67-11.31,2s-6.46,3.21-9.03,5.63-4.56,5.26-5.98,8.52c-1.42,3.26-2.13,6.82-2.13,10.67,0,5.14,1.2,9.73,3.6,13.77,2.4,4.04,5.68,7.23,9.84,9.56s8.91,3.5,14.25,3.5c3.55,0,7.01-.59,10.39-1.78,3.38-1.18,6.44-2.79,9.18-4.82l-5.68-9.53c-1.59,1.59-3.48,2.84-5.68,3.75Z"/>
      <path class="cls-3" d="M315.84,37.29c-3.09-1.88-6.96-2.81-11.59-2.81-3.55,0-6.89.79-10.01,2.36-2,1.01-3.82,2.31-5.45,3.9v-22.11h-12.52v67.97h12.52v-28.04c0-2.54.51-4.76,1.52-6.67,1.01-1.91,2.43-3.38,4.26-4.41,1.83-1.03,3.94-1.53,6.34-1.5,3.58,0,6.42,1.06,8.52,3.17s3.14,4.88,3.14,8.29v29.15h12.52v-32.75c0-3.28-.77-6.39-2.31-9.33-1.54-2.94-3.85-5.35-6.95-7.23Z"/>
      <path class="cls-3" d="M374.02,42.88c-1.51-2.05-3.41-3.81-5.73-5.26-3.35-2.1-7.49-3.14-12.42-3.14-3.69,0-7.09.67-10.22,2s-5.83,3.19-8.11,5.58c-2.28,2.38-4.05,5.21-5.32,8.49-1.27,3.28-1.9,6.86-1.9,10.75,0,5.21,1.1,9.83,3.3,13.87,2.2,4.04,5.22,7.21,9.07,9.51s8.25,3.45,13.18,3.45,9.08-1.05,12.42-3.14c2.32-1.45,4.22-3.21,5.73-5.26v6.89h11.11v-50.6h-11.11v6.89ZM370.7,69.71c-1.3,2.37-3.08,4.19-5.32,5.48-2.25,1.29-4.81,1.93-7.68,1.93s-5.39-.64-7.66-1.93c-2.26-1.28-4.04-3.11-5.32-5.48-1.29-2.37-1.93-5.17-1.93-8.42s.64-6.05,1.93-8.42c1.28-2.37,3.06-4.19,5.32-5.48,2.27-1.28,4.82-1.93,7.66-1.93s5.43.64,7.68,1.93c2.25,1.29,4.02,3.11,5.32,5.48s1.95,5.17,1.95,8.42-.65,6.05-1.95,8.42Z"/>
      <rect class="cls-3" x="395.12" y="35.99" width="12.52" height="50.6"/>
      <path class="cls-3" d="M407.03,16.32c-1.59-1.4-3.46-2.1-5.63-2.1s-4.04.7-5.63,2.1c-1.59,1.4-2.38,3.24-2.38,5.5s.79,4.09,2.38,5.48c1.59,1.39,3.46,2.08,5.63,2.08s4.04-.69,5.63-2.08c1.59-1.38,2.38-3.21,2.38-5.48s-.79-4.1-2.38-5.5Z"/>
      <path class="cls-3" d="M457.48,37.26c-3.04-1.86-6.9-2.79-11.56-2.79-2.94,0-5.78.61-8.52,1.83-2.74,1.22-5.14,3.18-7.2,5.88v-6.19h-12.52v50.6h12.52v-28.09c0-2.47.52-4.65,1.57-6.54,1.05-1.89,2.49-3.36,4.34-4.41,1.84-1.05,3.95-1.57,6.31-1.57,3.65,0,6.49,1.03,8.52,3.09,2.03,2.06,3.04,4.83,3.04,8.31v29.21h12.52v-33.16c0-3.11-.74-6.12-2.23-9.03-1.49-2.91-3.75-5.29-6.79-7.15Z"/>
      <path class="cls-3" d="M488.58,16.32c-1.59-1.4-3.46-2.1-5.63-2.1s-4.04.7-5.63,2.1c-1.59,1.4-2.38,3.24-2.38,5.5s.79,4.09,2.38,5.48c1.59,1.39,3.46,2.08,5.63,2.08s4.04-.69,5.63-2.08c1.59-1.38,2.38-3.21,2.38-5.48s-.79-4.1-2.38-5.5Z"/>
      <rect class="cls-3" x="476.66" y="35.99" width="12.52" height="50.6"/>
      <path class="cls-3" d="M530,75.34c-.85.47-1.79.84-2.84,1.09-1.05.25-2.13.38-3.25.38-2.33,0-4.15-.68-5.45-2.03-1.3-1.35-1.95-3.68-1.95-7v-21.55h13.49v-10.24h-13.49v-17.37h-12.52v17.37h-10.8v10.24h10.8v24.08c0,5.98,1.51,10.44,4.54,13.39,3.03,2.94,7.09,4.41,12.2,4.41,2.13,0,4.17-.26,6.13-.79,1.96-.52,3.68-1.17,5.17-1.95l-2.03-10.04Z"/>
    </g>
  </g>
</svg>